<?xml version="1.0" standalone="no"?><!DOCTYPE svg PUBLIC "-//W3C//DTD SVG 1.1//EN" "http://www.w3.org/Graphics/SVG/1.1/DTD/svg11.dtd"><svg t="1588903194634" class="icon" viewBox="0 0 1024 1024" version="1.1" xmlns="http://www.w3.org/2000/svg" p-id="4589" xmlns:xlink="http://www.w3.org/1999/xlink" width="200" height="200"><defs><style type="text/css"></style></defs><path d="M512 0C229.248 0 0 229.248 0 512s229.248 512 512 512 512-229.248 512-512S794.752 0 512 0z m237.269333 443.818667c-1.066667 4.522667-3.669333 11.093333-7.338666 19.029333h0.042666l-0.426666 0.725333c-21.461333 45.994667-77.568 136.106667-77.568 136.106667l-0.298667-0.512-16.384 28.544h79.018667l-150.912 200.661333 34.261333-136.533333h-62.165333l21.589333-90.24c-17.493333 4.181333-38.144 9.984-62.592 17.877333 0 0-33.109333 19.370667-95.36-37.290666 0 0-41.984-36.992-17.621333-46.250667 10.325333-3.925333 50.261333-8.917333 81.664-13.141333a4126.378667 4126.378667 0 0 1 68.522666-8.789334s-130.816 1.962667-161.834666-2.944c-31.061333-4.864-70.4-56.661333-78.805334-102.186666 0 0-12.970667-24.96 27.904-13.141334 40.832 11.818667 209.962667 46.08 209.962667 46.08S320.981333 374.357333 306.346667 357.888c-14.634667-16.469333-43.093333-89.813333-39.381334-134.912 0 0 1.621333-11.221333 13.141334-8.234667 0 0 162.602667 74.325333 273.792 114.986667 111.189333 40.704 207.872 61.397333 195.413333 114.048z" fill="#0D7FF3" p-id="4590"></path></svg>